<svg width="489" height="107" xmlns="http://www.w3.org/2000/svg">

 <g>
  <title>background</title>
  <rect fill="none" id="canvas_background" height="109" width="491" y="-1" x="-1"/>
 </g>
 <g>
  <title>Layer 1</title>
  <g id="svg_1">
   <path id="svg_2" d="m10.588,53.912l0,32.76l0,0.635c0.152,1.447 1.333,2.587 2.798,2.679l0.374,0l13.13,0l-15.76,-35.835c-0.12,-0.273 -0.3,-0.655 -0.396,-1.041c-0.094,0.249 -0.146,0.521 -0.146,0.802" fill="#FFFFFF" clip-rule="evenodd" fill-rule="evenodd"/>
   <path id="svg_3" d="m85.747,53.912l0,32.76l0,0.635c-0.152,1.447 -1.333,2.587 -2.798,2.679l-0.374,0l-13.13,0l15.76,-35.835c0.12,-0.273 0.3,-0.655 0.396,-1.041c0.094,0.249 0.146,0.521 0.146,0.802" fill="#FFFFFF" clip-rule="evenodd" fill-rule="evenodd"/>
   <path id="svg_4" d="m84.929,17.828c1.351,-3.08 -0.33,-5.229 -3.62,-5.229l-22.779,0c0.071,0.491 0.108,0.994 0.108,1.505c0,5.781 -4.687,10.475 -10.469,10.475c-5.786,0 -10.473,-4.693 -10.473,-10.475c0,-0.511 0.037,-1.014 0.108,-1.505l-22.78,0c-3.29,0 -4.97,2.149 -3.619,5.229l36.761,83.585l36.763,-83.585z" fill="#FFFFFF" clip-rule="evenodd" fill-rule="evenodd"/>
   <path id="svg_5" d="m435.431,86.839l41.846,0l0,-10.654l-29.466,0l0,-57.494l-12.38,0l0,68.148zm-39.067,-56.341c0,0 1.44,6.72 2.688,10.558l6.049,18.237l-17.853,0l6.046,-18.237c1.344,-3.838 2.879,-10.558 2.879,-10.558l0.191,0zm17.565,56.341l12.766,0l-23.995,-68.148l-12.958,0l-23.993,68.147l12.765,0l5.759,-17.468l23.898,0l5.758,17.469zm-97.995,-8.158c0,0 8.352,9.311 23.517,9.311c14.204,0 22.458,-9.119 22.458,-19.965c0,-21.787 -32.057,-18.812 -32.057,-30.905c0,-4.799 4.511,-8.158 10.27,-8.158c8.542,0 15.068,5.949 15.068,5.949l5.375,-10.077c0,0 -6.91,-7.294 -20.347,-7.294c-13.054,0 -22.844,8.446 -22.844,19.771c0,20.925 32.154,18.813 32.154,31.003c0,5.566 -4.705,8.254 -9.887,8.254c-9.599,0 -16.988,-7.198 -16.988,-7.198l-6.719,9.309zm-33.882,-48.183c0,0 1.44,6.72 2.688,10.558l6.049,18.237l-17.853,0l6.046,-18.237c1.344,-3.838 2.879,-10.558 2.879,-10.558l0.191,0zm17.564,56.341l12.766,0l-23.993,-68.147l-12.959,0l-23.993,68.147l12.765,0l5.759,-17.468l23.898,0l5.757,17.468zm-113.065,-34.362c0,20.062 14.397,35.515 35.226,35.515c17.371,0 26.777,-11.039 26.777,-11.039l-6.525,-8.926c0,0 -7.966,8.638 -19.773,8.638c-14.206,0 -22.939,-11.422 -22.939,-24.378c0,-12.669 8.446,-23.42 22.843,-23.42c10.846,0 18.621,7.198 18.621,7.198l5.951,-9.213c0,0 -8.542,-9.311 -25.148,-9.311c-20.059,0 -35.033,15.166 -35.033,34.936zm-66.609,9.886c0,15.262 11.039,25.628 27.548,25.628c16.412,0 27.449,-10.366 27.449,-25.628l0,-43.672l-12.381,0l0,43.575c0,9.216 -6.046,14.397 -15.165,14.397s-15.068,-5.182 -15.068,-14.301l0,-43.671l-12.383,0l0,43.672z" fill="#FFFFFF" clip-rule="evenodd" fill-rule="evenodd"/>
   <path id="svg_6" d="m52.744,18.71c-0.464,-0.097 -0.562,-0.097 -0.973,-0.017l-0.187,0.043l0,-1.848l0.552,0c0.005,0.074 0.023,0.139 0.045,0.212c0.167,0.552 0.521,0.894 0.952,0.991c0.642,0.148 1.134,-0.173 1.237,-0.67c0.099,-0.428 -0.086,-0.773 -0.677,-1.09l-0.315,-0.166l-0.188,-0.097c-0.091,-0.044 -0.178,-0.092 -0.27,-0.144c-0.642,-0.353 -0.922,-0.642 -1.084,-1.037c-0.052,-0.117 -0.092,-0.232 -0.115,-0.35c-0.234,-1.287 0.781,-2.252 2.62,-1.947c0.086,0.008 0.167,0.022 0.246,0.041l0.257,0.06l0.024,0c0.057,0.007 0.127,0.007 0.235,0.007c0.2,-0.007 0.321,-0.033 0.469,-0.092l0,1.8l-0.532,0l-0.017,-0.099l-0.028,-0.124c-0.139,-0.493 -0.374,-0.773 -0.706,-0.914c-0.057,-0.026 -0.12,-0.044 -0.183,-0.06c-0.516,-0.098 -0.945,0.184 -1.014,0.572c-0.063,0.313 0.034,0.533 0.361,0.773c0.103,0.086 0.258,0.174 0.606,0.339l0.184,0.091l0.337,0.166c0.917,0.461 1.312,1.088 1.278,1.908c-0.044,1.282 -1.131,2.077 -3.114,1.652" fill="#FFFFFF" clip-rule="evenodd" fill-rule="evenodd"/>
   <path id="svg_7" d="m50.717,13.252c-0.026,0 -0.047,0 -0.074,0.01c-0.513,0.063 -0.634,0.223 -0.662,0.918c0,0.039 -0.006,0.078 -0.006,0.129l0,2.785c0,0.04 0.006,0.076 0.006,0.115c0.033,0.716 0.137,0.865 0.646,0.934c0.032,0 0.056,0 0.089,0.006l0,0.514l-2.908,0l0,-0.514c0.014,0 0.046,0 0.063,0c0.556,-0.045 0.676,-0.207 0.698,-0.873c0,-0.053 0,-0.105 0,-0.157l0,-1.25l-1.913,0l0,1.25c0,0.052 0,0.097 0,0.147c0.023,0.676 0.143,0.838 0.699,0.883c0.025,0 0.051,0 0.071,0l0,0.514l-2.914,0l0,-0.514c0.032,-0.006 0.063,-0.006 0.099,-0.006c0.498,-0.068 0.601,-0.218 0.635,-0.934c0.006,-0.039 0.006,-0.075 0.006,-0.115l0,-2.785c0,-0.042 0,-0.081 -0.006,-0.113c-0.026,-0.711 -0.145,-0.871 -0.653,-0.934c-0.034,-0.01 -0.049,-0.01 -0.074,-0.01l0,-0.535l2.907,0l0,0.535c-0.038,0 -0.08,0 -0.121,0.01c-0.472,0.063 -0.645,0.246 -0.645,0.734l-0.005,0.297l0,0.883l1.913,0l0,-0.883l-0.005,-0.297c0,-0.488 -0.17,-0.672 -0.636,-0.734c-0.04,-0.01 -0.091,-0.01 -0.133,-0.01l0,-0.535l2.92,0l0,0.535l0.003,0z" fill="#FFFFFF" clip-rule="evenodd" fill-rule="evenodd"/>
   <path id="svg_8" d="m43.621,13.252c-0.034,0 -0.066,0 -0.103,0c-0.551,0.027 -0.745,0.207 -0.763,0.703l-0.006,0.264l0,0.109l0,2.692l0,0.269l0.006,0.127c0,0.057 0.011,0.114 0.018,0.174c0.074,0.387 0.252,0.527 0.745,0.553c0.028,0 0.062,0 0.103,0l0,0.52l-3.117,0l0,-0.53c0.023,0 0.048,0 0.071,0c0.565,-0.04 0.725,-0.19 0.748,-0.686l0.017,-0.271l0,-0.141l0,-2.675l-0.009,-0.382c0,-0.526 -0.191,-0.716 -0.73,-0.733c-0.034,0 -0.057,0 -0.092,0l0,-0.527l3.111,0l0,0.534l0.001,0z" fill="#FFFFFF" clip-rule="evenodd" fill-rule="evenodd"/>
   <polygon id="svg_9" points="45.48899841308594,7.1230010986328125 47.218994140625,7.1230010986328125 47.218994140625,5.5839996337890625 48.686004638671875,5.5839996337890625 48.686004638671875,7.1230010986328125 50.404998779296875,7.1230010986328125 50.404998779296875,8.59000015258789 48.686004638671875,8.59000015258789 48.686004638671875,11.419998168945312 47.218994140625,11.419998168945312 47.218994140625,8.59000015258789 45.48899841308594,8.59000015258789 " fill="#FFFFFF" clip-rule="evenodd" fill-rule="evenodd"/>
  </g>
 </g>
</svg>